<svg width="100" height="100" fill="none" xmlns="http://www.w3.org/2000/svg"><path fill-rule="evenodd" clip-rule="evenodd" d="M82.814 74.93H54.253c0-7.768-6.298-14.066-14.066-14.066-1.563 0-3.061.265-4.465.736v-9.184a4.465 4.465 0 0 1 5.115-4.418l51.796 7.617a4.465 4.465 0 0 1 3.816 4.418v4.285a10.956 10.956 0 0 0-2.68-.344c-6.05 0-10.955 4.905-10.955 10.956zm-50.891-2.681a7.37 7.37 0 1 1 14.742 0 7.37 7.37 0 0 1-14.742 0zm60.953 4.654a4.654 4.654 0 1 0-.001-9.309 4.654 4.654 0 0 0 0 9.309z" fill="#B5DCFF"/><path fill-rule="evenodd" clip-rule="evenodd" d="M51.573 68.987h28.56v2.956h-28.56v-2.956zm-2.163 1.476c0 6.563-5.34 11.903-11.903 11.903-6.563 0-11.903-5.34-11.903-11.903 0-6.563 5.34-11.903 11.903-11.903 6.563 0 11.903 5.34 11.903 11.903zm-2.955 0c0-4.933-4.014-8.947-8.947-8.947-4.933 0-8.947 4.014-8.947 8.947 0 4.933 4.014 8.947 8.947 8.947 4.933 0 8.947-4.014 8.947-8.947zm53.545 0c0 4.914-3.997 8.91-8.909 8.91-4.914 0-8.91-3.997-8.91-8.91s3.997-8.909 8.91-8.909c4.912-.001 8.909 3.996 8.909 8.909zm-2.956 0a5.96 5.96 0 0 0-5.954-5.954 5.961 5.961 0 0 0-5.955 5.954 5.961 5.961 0 0 0 5.955 5.955 5.962 5.962 0 0 0 5.954-5.955zM38.231 42.049 9.36 20.591H0v-2.956h10.337l30.935 22.992v-1.781a4.161 4.161 0 0 1 4.157-4.156h4.542v-2.638h-2.074v-2.956H80.47v2.956h-2.628v2.638h5.095a4.161 4.161 0 0 1 4.157 4.156v10.387l3.076.452c2.894.426 5.076 2.956 5.076 5.883v4.269H92.29v-4.269a3.006 3.006 0 0 0-2.551-2.959l-51.795-7.617a3 3 0 0 0-2.391.699 2.984 2.984 0 0 0-1.034 2.259v9.172h-2.956V47.95c0-1.727.749-3.365 2.056-4.495a5.973 5.973 0 0 1 4.612-1.406zm14.697-7.359h21.959v-2.638H52.928v2.638zm-8.7 8.239 39.911 5.869v-2.355h-5.328v-1.97h5.328v-2.495h-5.328v-1.97h5.328v-1.161c0-.662-.539-1.201-1.202-1.201H45.43c-.663 0-1.202.539-1.202 1.201v4.082z" fill="#3F27BA"/></svg>